<svg width="16" height="22" viewBox="0 0 16 22" fill="none" xmlns="http://www.w3.org/2000/svg">
<path d="M7.74974 21.0264C7.74777 21.0264 7.74539 21.0264 7.74342 21.0264C7.53697 21.0241 7.34671 20.9147 7.24092 20.7375L1.61276 11.2855C1.59697 11.2591 1.58355 11.2318 1.57211 11.2034C0.870265 10.0512 0.5 8.73079 0.5 7.37724C0.507105 3.30711 3.82132 0 7.88947 0C7.89263 0 7.8954 0 7.89855 0C9.87342 0.00276316 11.7275 0.774079 13.1193 2.17145C14.5104 3.56763 15.2746 5.42368 15.2718 7.39697C15.2718 8.7304 14.9032 10.0437 14.2045 11.203C14.1911 11.2409 14.1733 11.2772 14.1516 11.3124L8.25224 20.7486C8.14329 20.9211 7.95342 21.0264 7.74974 21.0264ZM2.68487 10.7712L7.76198 19.2979L13.0814 10.7893C13.0949 10.753 13.1118 10.7175 13.1328 10.6839C13.7572 9.68645 14.0872 8.54961 14.0872 7.39658V7.39579C14.09 5.7379 13.4482 4.17947 12.2801 3.00671C11.1117 1.83395 9.55487 1.18658 7.89697 1.18382C7.8946 1.18382 7.89184 1.18382 7.88908 1.18382C4.47263 1.18382 1.68974 3.96079 1.68421 7.37803C1.68421 8.54408 2.01224 9.68171 2.63237 10.667C2.65368 10.6997 2.67105 10.7349 2.68487 10.7712Z" fill="#333333"/>
<path d="M7.8908 10.151C7.88883 10.151 7.88686 10.151 7.88449 10.151C7.0508 10.151 6.26567 9.82538 5.67554 9.23407C5.08462 8.64196 4.76015 7.85565 4.76172 7.0192C4.76251 6.18551 5.08857 5.40117 5.67988 4.81144C6.27041 4.22288 7.05436 3.8988 7.88844 3.8988C7.88923 3.8988 7.89041 3.8988 7.89159 3.8988C9.61462 3.90078 11.0155 5.30525 11.014 7.02986C11.0132 7.86472 10.6871 8.64946 10.0958 9.2392C9.50567 9.82736 8.72291 10.151 7.8908 10.151ZM7.88804 5.08301C7.37015 5.08301 6.88265 5.28433 6.51594 5.65025C6.14883 6.01617 5.94633 6.50328 5.94594 7.02117C5.94515 7.54104 6.14686 8.02973 6.51396 8.39762C6.88028 8.76473 7.36778 8.96683 7.88567 8.96683C7.88686 8.96683 7.88804 8.96683 7.88962 8.96683C8.40751 8.96683 8.89344 8.76591 9.25975 8.40078C9.62686 8.03486 9.82936 7.54736 9.82975 7.02907C9.83054 5.95775 8.96054 5.08459 7.89001 5.08341C7.88962 5.08301 7.88883 5.08301 7.88804 5.08301Z" fill="#333333"/>
</svg>
