<svg width="30" height="30" viewBox="0 0 30 30" fill="none" xmlns="http://www.w3.org/2000/svg">
<path d="M14.7497 25.0264C14.7478 25.0264 14.7454 25.0264 14.7434 25.0264C14.537 25.0241 14.3467 24.9147 14.2409 24.7375L8.61276 15.2855C8.59697 15.2591 8.58355 15.2318 8.57211 15.2034C7.87026 14.0512 7.5 12.7308 7.5 11.3772C7.50711 7.30711 10.8213 4 14.8895 4C14.8926 4 14.8954 4 14.8986 4C16.8734 4.00276 18.7275 4.77408 20.1193 6.17145C21.5104 7.56763 22.2746 9.42368 22.2718 11.397C22.2718 12.7304 21.9032 14.0437 21.2045 15.203C21.1911 15.2409 21.1733 15.2772 21.1516 15.3124L15.2522 24.7486C15.1433 24.9211 14.9534 25.0264 14.7497 25.0264ZM9.68487 14.7712L14.762 23.2979L20.0814 14.7893C20.0949 14.753 20.1118 14.7175 20.1328 14.6839C20.7572 13.6864 21.0872 12.5496 21.0872 11.3966V11.3958C21.09 9.7379 20.4482 8.17947 19.2801 7.00671C18.1117 5.83395 16.5549 5.18658 14.897 5.18382C14.8946 5.18382 14.8918 5.18382 14.8891 5.18382C11.4726 5.18382 8.68974 7.96079 8.68421 11.378C8.68421 12.5441 9.01224 13.6817 9.63237 14.667C9.65368 14.6997 9.67105 14.7349 9.68487 14.7712Z" fill="#333333"/>
<path d="M14.8908 14.151C14.8888 14.151 14.8869 14.151 14.8845 14.151C14.0508 14.151 13.2657 13.8254 12.6755 13.2341C12.0846 12.642 11.7601 11.8556 11.7617 11.0192C11.7625 10.1855 12.0886 9.40117 12.6799 8.81144C13.2704 8.22288 14.0544 7.8988 14.8884 7.8988C14.8892 7.8988 14.8904 7.8988 14.8916 7.8988C16.6146 7.90078 18.0155 9.30525 18.014 11.0299C18.0132 11.8647 17.6871 12.6495 17.0958 13.2392C16.5057 13.8274 15.7229 14.151 14.8908 14.151ZM14.888 9.08301C14.3701 9.08301 13.8826 9.28433 13.5159 9.65025C13.1488 10.0162 12.9463 10.5033 12.9459 11.0212C12.9451 11.541 13.1469 12.0297 13.514 12.3976C13.8803 12.7647 14.3678 12.9668 14.8857 12.9668C14.8869 12.9668 14.888 12.9668 14.8896 12.9668C15.4075 12.9668 15.8934 12.7659 16.2598 12.4008C16.6269 12.0349 16.8294 11.5474 16.8298 11.0291C16.8305 9.95775 15.9605 9.08459 14.89 9.08341C14.8896 9.08301 14.8888 9.08301 14.888 9.08301Z" fill="#333333"/>
</svg>
