<svg width="28" height="28" viewBox="0 0 28 28" fill="none" xmlns="http://www.w3.org/2000/svg">
<path d="M13.7664 23.6774C13.7646 23.6774 13.7624 23.6774 13.7605 23.6774C13.5678 23.6752 13.3903 23.5732 13.2915 23.4077L8.03858 14.5859C8.02384 14.5612 8.01132 14.5358 8.00063 14.5093C7.34558 13.4338 7 12.2015 7 10.9382C7.00663 7.13937 10.0999 4.05273 13.8968 4.05273C13.8998 4.05273 13.9024 4.05273 13.9053 4.05273C15.7485 4.05531 17.479 4.77521 18.7781 6.07942C20.0764 7.38252 20.7896 9.11484 20.7871 10.9566C20.7871 12.2011 20.4429 13.4268 19.7908 14.5089C19.7783 14.5443 19.7617 14.5782 19.7415 14.6109L14.2354 23.4181C14.1337 23.5791 13.9565 23.6774 13.7664 23.6774ZM9.03921 14.1058L13.7778 22.0641L18.7427 14.1228C18.7552 14.0889 18.7711 14.0557 18.7906 14.0244C19.3734 13.0934 19.6814 12.0324 19.6814 10.9562V10.9555C19.684 9.4081 19.0849 7.95358 17.9948 6.859C16.9043 5.76442 15.4512 5.16021 13.9038 5.15763C13.9016 5.15763 13.8991 5.15763 13.8965 5.15763C10.7078 5.15763 8.11042 7.74947 8.10526 10.9389C8.10526 12.0272 8.41142 13.089 8.99021 14.0086C9.01011 14.0392 9.02632 14.0719 9.03921 14.1058Z" fill="white"/>
<path d="M13.899 13.5268C13.8972 13.5268 13.8953 13.5268 13.8931 13.5268C13.115 13.5268 12.3822 13.2229 11.8314 12.671C11.2799 12.1184 10.977 11.3845 10.9785 10.6038C10.9793 9.82567 11.2836 9.09362 11.8355 8.5432C12.3866 7.99388 13.1183 7.69141 13.8968 7.69141C13.8975 7.69141 13.8986 7.69141 13.8997 7.69141C15.5079 7.69325 16.8154 9.00409 16.8139 10.6137C16.8132 11.3929 16.5089 12.1254 15.957 12.6758C15.4062 13.2247 14.6756 13.5268 13.899 13.5268ZM13.8964 8.79667C13.413 8.79667 12.958 8.98456 12.6158 9.32609C12.2732 9.66762 12.0842 10.1222 12.0838 10.6056C12.083 11.0908 12.2713 11.5469 12.6139 11.8903C12.9558 12.2329 13.4108 12.4216 13.8942 12.4216C13.8953 12.4216 13.8964 12.4216 13.8979 12.4216C14.3813 12.4216 14.8348 12.234 15.1767 11.8932C15.5193 11.5517 15.7083 11.0967 15.7087 10.613C15.7094 9.61309 14.8974 8.79814 13.8983 8.79704C13.8979 8.79667 13.8972 8.79667 13.8964 8.79667Z" fill="white"/>
</svg>
