<svg width="53" height="58" viewBox="0 0 53 58" fill="none" xmlns="http://www.w3.org/2000/svg">
<path d="M3.58203 2C3.58203 1.17157 2.91046 0.5 2.08203 0.5C1.2536 0.5 0.582031 1.17157 0.582031 2L3.58203 2ZM2.08203 49.4972L0.582032 49.4972L0.582033 50.9972L2.08203 50.9972L2.08203 49.4972ZM39.0541 43.5224C35.7543 46.4606 35.4611 51.5174 38.3993 54.8172C41.3374 58.1169 46.3943 58.4101 49.694 55.4719C52.9938 52.5338 53.287 47.477 50.3488 44.1772C47.4107 40.8774 42.3538 40.5843 39.0541 43.5224ZM0.582031 2L0.582032 49.4972L3.58203 49.4972L3.58203 2L0.582031 2ZM2.08203 50.9972L44.3741 50.9972L44.3741 47.9972L2.08203 47.9972L2.08203 50.9972Z" fill="#9A4EFF"/>
</svg>
