<svg width="28" height="28" viewBox="0 0 28 28" fill="none" xmlns="http://www.w3.org/2000/svg">
<path d="M23.6181 9.63739C23.6181 9.63599 23.6175 9.6346 23.6175 9.63292C23.6173 9.61615 23.6147 9.59966 23.6125 9.58289C23.6111 9.57171 23.6108 9.56025 23.6083 9.54907C23.6058 9.53817 23.6013 9.52727 23.5982 9.51637C23.5935 9.50043 23.589 9.48422 23.5823 9.46885C23.5818 9.46745 23.5815 9.46606 23.5809 9.46466C21.8603 5.65224 18.2691 3.37598 13.9751 3.37598C8.13027 3.37598 3.375 8.13087 3.375 13.9753C3.375 19.8197 8.13027 24.5743 13.9751 24.5743C16.1958 24.5743 18.3223 23.8945 20.124 22.6091C20.3126 22.4749 20.3562 22.2128 20.2218 22.0244C20.0876 21.8357 19.8252 21.7921 19.6371 21.9266C17.9779 23.11 16.0202 23.7358 13.9751 23.7358C8.59258 23.7358 4.21352 19.3571 4.21352 13.9753C4.21352 8.59317 8.59258 4.21448 13.9751 4.21448C17.96 4.21448 21.1629 6.22634 22.7796 9.73466L22.7815 15.3884C22.7815 16.6353 21.7672 17.6499 20.5206 17.6499C19.3042 17.6499 18.197 16.5383 18.1537 15.2979C18.2806 14.8789 18.3505 14.4351 18.3505 13.9753C18.3505 11.4547 16.2997 9.40429 13.7794 9.40429C11.2591 9.40429 9.20833 11.4547 9.20833 13.9753C9.20833 16.4958 11.2588 18.5463 13.7794 18.5463C15.3676 18.5463 16.7679 17.7312 17.5874 16.4986C18.0967 17.6451 19.2499 18.4884 20.5206 18.4884C22.2295 18.4884 23.62 17.0976 23.62 15.3882L23.6181 9.63739ZM13.7794 17.7077C11.7214 17.7077 10.0469 16.0335 10.0469 13.9753C10.0469 11.9173 11.7214 10.2428 13.7794 10.2428C15.8374 10.2428 17.512 11.9173 17.512 13.9753C17.512 14.3451 17.4561 14.7017 17.3554 15.0393C17.3378 15.0754 17.325 15.1137 17.318 15.1545C16.823 16.6359 15.4252 17.7077 13.7794 17.7077Z" fill="white"/>
</svg>
