<svg width="30" height="30" viewBox="0 0 30 30" fill="none" xmlns="http://www.w3.org/2000/svg">
<path d="M11.8122 25.6008C13.0005 26.2663 14.1708 26.6005 15.2611 26.6005C16.1738 26.6002 17.0302 26.3658 17.7925 25.8953L20.6023 24.162C20.7037 24.0995 20.776 23.9997 20.8035 23.8837C20.831 23.768 20.811 23.646 20.7485 23.5447L18.313 19.5973C18.2505 19.4963 18.1504 19.424 18.0347 19.3965C17.9181 19.3693 17.7967 19.389 17.6957 19.4515L14.8647 21.1988C14.4294 21.4673 13.871 21.5531 13.3338 21.435C12.7966 21.3166 12.338 21.0051 12.0755 20.5794L8.2278 14.3436C7.67147 13.442 7.95188 12.2558 8.8529 11.6994L8.8532 11.6991L11.7915 9.88514C12.0023 9.75509 12.0674 9.47887 11.9374 9.26811L9.50161 5.3217C9.37157 5.11094 9.09504 5.04487 8.88459 5.17551L5.94865 6.98773C2.6764 9.00742 2.7912 14.3093 6.22846 19.8811C7.8042 22.4359 9.7874 24.4672 11.8122 25.6008ZM6.42009 7.75065L8.97427 6.1743L10.9392 9.35749L8.38236 10.9359C8.38176 10.9362 8.38116 10.9368 8.38116 10.9368C7.06043 11.7533 6.64908 13.4922 7.4649 14.8142L11.3126 21.0496C11.7015 21.6807 12.3682 22.1402 13.1413 22.3106C13.9039 22.4777 14.7041 22.3513 15.3358 21.9614L17.7851 20.4496L19.7497 23.6334L17.3214 25.1315C15.5481 26.2256 13.5849 25.5649 12.2504 24.8179C10.3566 23.7572 8.48878 21.8368 6.99167 19.4099C3.83182 14.2877 3.59685 9.49321 6.42009 7.75065Z" fill="white"/>
<path d="M14.8204 10.0299C16.2715 10.1157 17.5558 10.8612 18.3444 12.0759C19.0983 13.2334 19.2798 14.6519 18.8419 15.9679C18.7635 16.2028 18.8906 16.4569 19.1256 16.5347C19.1725 16.5505 19.22 16.5577 19.2673 16.5577C19.4553 16.5577 19.6302 16.439 19.6926 16.251C20.2176 14.6743 20 12.9739 19.0963 11.5868C18.1653 10.1524 16.5863 9.23556 14.8734 9.13421C14.6237 9.12375 14.4139 9.3082 14.3992 9.55543C14.3846 9.80296 14.5732 10.0152 14.8204 10.0299Z" fill="white"/>
<path d="M15.4481 6.70148C17.7978 6.97143 19.8835 8.26079 21.1705 10.2383C22.4174 12.1555 22.7707 14.516 22.1397 16.7147C22.0712 16.953 22.2087 17.2011 22.4467 17.2693C22.4882 17.2812 22.5295 17.2869 22.5707 17.2869C22.7654 17.2869 22.945 17.1587 23.0012 16.9623C23.704 14.5136 23.3106 11.8843 21.922 9.74925C20.4889 7.5469 18.1667 6.11136 15.5503 5.81061C15.3091 5.78221 15.0822 5.95889 15.0538 6.20493C15.0254 6.45096 15.2018 6.67308 15.4481 6.70148Z" fill="white"/>
<path d="M16.0619 3.77011C19.1826 4.20389 21.9574 5.96768 23.6752 8.60948C25.3579 11.1945 25.8625 14.3872 25.0602 17.3689C24.9956 17.6081 25.1376 17.8541 25.3767 17.9184C25.4156 17.9289 25.4551 17.934 25.4936 17.934C25.6912 17.934 25.8727 17.8024 25.9262 17.6021C26.7949 14.3747 26.2485 10.9186 24.427 8.1204C22.5676 5.26097 19.5638 3.35159 16.186 2.88194C15.9418 2.84935 15.714 3.01886 15.6802 3.26429C15.6458 3.50943 15.8168 3.73603 16.0619 3.77011Z" fill="white"/>
</svg>
