<svg width="24" height="24" viewBox="0 0 24 24" fill="none" xmlns="http://www.w3.org/2000/svg">
<path d="M8.81215 22.7229C10.0005 23.3883 11.1708 23.7226 12.2611 23.7226C13.1738 23.7223 14.0302 23.4879 14.7925 23.0174L17.6023 21.2841C17.7037 21.2216 17.776 21.1217 17.8035 21.0057C17.831 20.89 17.811 20.7681 17.7485 20.6667L15.313 16.7194C15.2505 16.6184 15.1504 16.546 15.0347 16.5185C14.9181 16.4913 14.7967 16.5111 14.6957 16.5735L11.8647 18.3209C11.4294 18.5893 10.871 18.6751 10.3338 18.5571C9.79658 18.4387 9.338 18.1272 9.07552 17.7015L5.2278 11.4657C4.67147 10.5641 4.95188 9.37786 5.8529 8.82152L5.8532 8.82122L8.79152 7.00721C9.00228 6.87716 9.06745 6.60094 8.93741 6.39018L6.50161 2.44377C6.37157 2.23301 6.09504 2.16694 5.88459 2.29758L2.94865 4.1098C-0.323599 6.12949 -0.208804 11.4313 3.22846 17.0031C4.8042 19.5579 6.7874 21.5893 8.81215 22.7229ZM3.42009 4.87272L5.97427 3.29637L7.93923 6.47956L5.38236 8.05801C5.38176 8.05831 5.38116 8.0589 5.38116 8.0589C4.06043 8.87533 3.64908 10.6143 4.4649 11.9363L8.31261 18.1717C8.70154 18.8028 9.36819 19.2623 10.1413 19.4327C10.9039 19.5998 11.7041 19.4733 12.3358 19.0835L14.7851 17.5717L16.7497 20.7555L14.3214 22.2535C12.5481 23.3477 10.5849 22.687 9.2504 21.9399C7.35659 20.8793 5.48878 18.9588 3.99167 16.532C0.831823 11.4098 0.596852 6.61529 3.42009 4.87272Z" fill="#333333"/>
<path d="M11.8204 7.15217C13.2715 7.23797 14.5558 7.98355 15.3444 9.19817C16.0983 10.3557 16.2798 11.7742 15.8419 13.0902C15.7635 13.3251 15.8906 13.5793 16.1256 13.657C16.1725 13.6728 16.22 13.68 16.2673 13.68C16.4553 13.68 16.6302 13.5613 16.6926 13.3733C17.2176 11.7966 17 10.0962 16.0963 8.70909C15.1653 7.27474 13.5863 6.35787 11.8734 6.25653C11.6237 6.24606 11.4139 6.43052 11.3992 6.67774C11.3846 6.92527 11.5732 7.13753 11.8204 7.15217Z" fill="#333333"/>
<path d="M12.4481 3.82367C14.7978 4.09362 16.8835 5.38298 18.1705 7.36052C19.4174 9.27767 19.7707 11.6382 19.1397 13.8369C19.0712 14.0752 19.2087 14.3233 19.4467 14.3915C19.4882 14.4034 19.5295 14.4091 19.5707 14.4091C19.7654 14.4091 19.945 14.2809 20.0012 14.0845C20.704 11.6358 20.3106 9.00653 18.922 6.87144C17.4889 4.66909 15.1667 3.23355 12.5503 2.93281C12.3091 2.90441 12.0822 3.08108 12.0538 3.32712C12.0254 3.57315 12.2018 3.79527 12.4481 3.82367Z" fill="#333333"/>
<path d="M13.0619 0.892183C16.1826 1.32596 18.9574 3.08975 20.6752 5.73155C22.3579 8.31655 22.8625 11.5093 22.0602 14.491C21.9956 14.7302 22.1376 14.9762 22.3767 15.0405C22.4156 15.0509 22.4551 15.056 22.4936 15.056C22.6912 15.056 22.8727 14.9245 22.9262 14.7242C23.7949 11.4968 23.2485 8.04062 21.427 5.24247C19.5676 2.38304 16.5638 0.473656 13.186 0.00400934C12.9418 -0.028576 12.714 0.140927 12.6802 0.386364C12.6458 0.631501 12.8168 0.858103 13.0619 0.892183Z" fill="#333333"/>
</svg>
