<svg width="60" height="60" viewBox="0 0 60 60" fill="none" xmlns="http://www.w3.org/2000/svg">
<g id="Tilda_Icons_7cafe_map 2">
<g id="Group 262">
<path id="Vector" d="M29.4995 50.7371C29.4955 50.7371 29.4908 50.7371 29.4868 50.7371C29.0739 50.7324 28.6934 50.5137 28.4818 50.1592L17.2255 31.2553C17.1939 31.2024 17.1671 31.1479 17.1442 31.091C15.7405 28.7866 15 26.1458 15 23.4387C15.0142 15.2984 21.6426 8.6842 29.7789 8.6842C29.7853 8.6842 29.7908 8.6842 29.7971 8.6842C33.7468 8.68973 37.455 10.2324 40.2387 13.0271C43.0208 15.8195 44.5492 19.5316 44.5437 23.4782C44.5437 26.145 43.8063 28.7716 42.409 31.0903C42.3821 31.166 42.3466 31.2387 42.3032 31.3089L30.5045 50.1813C30.2866 50.5263 29.9068 50.7371 29.4995 50.7371ZM19.3697 30.2266L29.524 47.28L40.1629 30.2629C40.1897 30.1903 40.2237 30.1192 40.2655 30.0521C41.5145 28.0571 42.1745 25.7834 42.1745 23.4774V23.4758C42.18 20.16 40.8963 17.0432 38.5603 14.6976C36.2234 12.3521 33.1097 11.0574 29.7939 11.0518C29.7892 11.0518 29.7837 11.0518 29.7782 11.0518C22.9453 11.0518 17.3795 16.6058 17.3684 23.4403C17.3684 25.7724 18.0245 28.0476 19.2647 30.0182C19.3074 30.0837 19.3421 30.1539 19.3697 30.2266Z" fill="black"/>
<path id="Vector_2" d="M29.7816 28.9863C29.7777 28.9863 29.7737 28.9863 29.769 28.9863C28.1016 28.9863 26.5313 28.335 25.3511 27.1524C24.1692 25.9682 23.5203 24.3956 23.5234 22.7227C23.525 21.0553 24.1771 19.4866 25.3598 18.3071C26.5408 17.13 28.1087 16.4819 29.7769 16.4819C29.7785 16.4819 29.7808 16.4819 29.7832 16.4819C33.2292 16.4858 36.0311 19.2948 36.0279 22.744C36.0263 24.4137 35.3742 25.9832 34.1916 27.1627C33.0113 28.339 31.4458 28.9863 29.7816 28.9863ZM29.7761 18.8503C28.7403 18.8503 27.7653 19.2529 27.0319 19.9848C26.2977 20.7166 25.8927 21.6908 25.8919 22.7266C25.8903 23.7663 26.2937 24.7437 27.0279 25.4795C27.7606 26.2137 28.7356 26.6179 29.7713 26.6179C29.7737 26.6179 29.7761 26.6179 29.7792 26.6179C30.815 26.6179 31.7869 26.2161 32.5195 25.4858C33.2537 24.754 33.6587 23.779 33.6595 22.7424C33.6611 20.5998 31.9211 18.8535 29.78 18.8511C29.7792 18.8503 29.7777 18.8503 29.7761 18.8503Z" fill="black"/>
</g>
</g>
</svg>
