<svg width="30" height="30" viewBox="0 0 30 30" fill="none" xmlns="http://www.w3.org/2000/svg">
<path d="M11.8122 25.7229C13.0005 26.3883 14.1708 26.7225 15.2611 26.7225C16.1738 26.7222 17.0302 26.4879 17.7925 26.0173L20.6023 24.284C20.7037 24.2215 20.776 24.1217 20.8035 24.0057C20.831 23.89 20.811 23.768 20.7485 23.6667L18.313 19.7194C18.2505 19.6183 18.1504 19.546 18.0347 19.5185C17.9181 19.4913 17.7967 19.511 17.6957 19.5735L14.8647 21.3209C14.4294 21.5893 13.871 21.6751 13.3338 21.557C12.7966 21.4386 12.338 21.1271 12.0755 20.7014L8.2278 14.4657C7.67147 13.5641 7.95188 12.3778 8.8529 11.8215L8.8532 11.8212L11.7915 10.0072C12.0023 9.87713 12.0674 9.6009 11.9374 9.39015L9.50161 5.44374C9.37157 5.23298 9.09504 5.16691 8.88459 5.29755L5.94865 7.10977C2.6764 9.12946 2.7912 14.4313 6.22846 20.0031C7.8042 22.5579 9.7874 24.5892 11.8122 25.7229ZM6.42009 7.87269L8.97427 6.29634L10.9392 9.47953L8.38236 11.058C8.38176 11.0583 8.38116 11.0589 8.38116 11.0589C7.06043 11.8753 6.64908 13.6143 7.4649 14.9362L11.3126 21.1717C11.7015 21.8028 12.3682 22.2622 13.1413 22.4326C13.9039 22.5997 14.7041 22.4733 15.3358 22.0835L17.7851 20.5717L19.7497 23.7555L17.3214 25.2535C15.5481 26.3477 13.5849 25.687 12.2504 24.9399C10.3566 23.8792 8.48878 21.9588 6.99167 19.5319C3.83182 14.4098 3.59685 9.61525 6.42009 7.87269Z" fill="#333333"/>
<path d="M14.8204 10.1521C16.2715 10.2379 17.5558 10.9835 18.3444 12.1981C19.0983 13.3557 19.2798 14.7742 18.8419 16.0901C18.7635 16.3251 18.8906 16.5792 19.1256 16.6569C19.1725 16.6728 19.22 16.68 19.2673 16.68C19.4553 16.68 19.6302 16.5613 19.6926 16.3732C20.2176 14.7966 20 13.0962 19.0963 11.7091C18.1653 10.2747 16.5863 9.35784 14.8734 9.2565C14.6237 9.24603 14.4139 9.43048 14.3992 9.67771C14.3846 9.92524 14.5732 10.1375 14.8204 10.1521Z" fill="#333333"/>
<path d="M15.4481 6.82367C17.7978 7.09362 19.8835 8.38298 21.1705 10.3605C22.4174 12.2777 22.7707 14.6382 22.1397 16.8369C22.0712 17.0752 22.2087 17.3233 22.4467 17.3915C22.4882 17.4034 22.5295 17.4091 22.5707 17.4091C22.7654 17.4091 22.945 17.2809 23.0012 17.0845C23.704 14.6358 23.3106 12.0065 21.922 9.87144C20.4889 7.66909 18.1667 6.23355 15.5503 5.93281C15.3091 5.90441 15.0822 6.08108 15.0538 6.32712C15.0254 6.57315 15.2018 6.79527 15.4481 6.82367Z" fill="#333333"/>
<path d="M16.0619 3.89218C19.1826 4.32596 21.9574 6.08975 23.6752 8.73155C25.3579 11.3165 25.8625 14.5093 25.0602 17.491C24.9956 17.7302 25.1376 17.9762 25.3767 18.0405C25.4156 18.0509 25.4551 18.056 25.4936 18.056C25.6912 18.056 25.8727 17.9245 25.9262 17.7242C26.7949 14.4968 26.2485 11.0406 24.427 8.24247C22.5676 5.38304 19.5638 3.47366 16.186 3.00401C15.9418 2.97142 15.714 3.14093 15.6802 3.38636C15.6458 3.6315 15.8168 3.8581 16.0619 3.89218Z" fill="#333333"/>
</svg>
